<svg width="22" height="18" viewBox="0 0 22 18" fill="none" xmlns="http://www.w3.org/2000/svg">
<path d="M0 9C0 8.4477 0.44772 8 1 8H21C21.5523 8 22 8.4477 22 9C22 9.5523 21.5523 10 21 10H1C0.44772 10 0 9.5523 0 9Z" fill="#23262F"/>
<path d="M0 1C0 0.44772 0.44772 0 1 0H21C21.5523 0 22 0.44772 22 1C22 1.55228 21.5523 2 21 2H1C0.44772 2 0 1.55228 0 1Z" fill="#23262F"/>
<path d="M0 17C0 16.4477 0.44772 16 1 16H21C21.5523 16 22 16.4477 22 17C22 17.5523 21.5523 18 21 18H1C0.44772 18 0 17.5523 0 17Z" fill="#23262F"/>
</svg>
