<svg width="44" height="44" viewBox="0 0 44 44" fill="none" xmlns="http://www.w3.org/2000/svg">
<circle cx="22" cy="22" r="22" fill="#23262F"/>
<path fill-rule="evenodd" clip-rule="evenodd" d="M22.375 13.875C18.4854 13.875 14.875 16.4381 14.875 20.4375C14.875 21.9097 15.2391 22.9958 15.8899 23.8644C16.5532 24.7498 17.5726 25.4871 19.0153 26.1476L19.7806 26.498L19.5144 27.2965C19.1325 28.4423 18.4843 29.4948 17.8296 30.3603C20.0919 29.6497 23.0469 28.5503 25.1362 27.1575C27.2079 25.7763 28.3721 24.6894 29.0304 23.6766C29.6648 22.7005 29.875 21.7228 29.875 20.4375C29.875 16.4381 26.2646 13.875 22.375 13.875ZM13 20.4375C13 15.0619 17.8271 12 22.375 12C26.9229 12 31.75 15.0619 31.75 20.4375C31.75 21.9647 31.4915 23.3307 30.6024 24.6984C29.7373 26.0294 28.3233 27.2862 26.1763 28.7175C23.3857 30.5779 19.343 31.8968 17.0291 32.5576C16.2687 32.7747 15.663 32.3286 15.4023 31.8638C15.1454 31.4061 15.0821 30.6988 15.5726 30.1513C16.2291 29.4186 16.9488 28.4749 17.4308 27.4567C16.1878 26.7976 15.1499 26.004 14.3893 24.9886C13.4574 23.7447 13 22.2465 13 20.4375Z" fill="#FCFCFD"/>
<path d="M19.5625 20.4375C19.5625 21.2142 18.9329 21.8437 18.1562 21.8437C17.3796 21.8437 16.75 21.2142 16.75 20.4375C16.75 19.6608 17.3796 19.0312 18.1562 19.0312C18.9329 19.0312 19.5625 19.6608 19.5625 20.4375Z" fill="#FCFCFD"/>
<path d="M26.5938 21.8437C27.3704 21.8437 28 21.2142 28 20.4375C28 19.6608 27.3704 19.0312 26.5938 19.0312C25.8171 19.0312 25.1875 19.6608 25.1875 20.4375C25.1875 21.2142 25.8171 21.8437 26.5938 21.8437Z" fill="#FCFCFD"/>
<path d="M23.779 20.4375C23.779 21.2142 23.1494 21.8437 22.3728 21.8437C21.5961 21.8437 20.9666 21.2142 20.9666 20.4375C20.9666 19.6608 21.5961 19.0312 22.3728 19.0312C23.1494 19.0312 23.779 19.6608 23.779 20.4375Z" fill="#FCFCFD"/>
</svg>
